<svg width="80" height="80" viewBox="0 0 80 80" fill="none" xmlns="http://www.w3.org/2000/svg">
<g filter="url(#filter0_i_10_29)">
<path fill-rule="evenodd" clip-rule="evenodd" d="M30 6.66665C30 4.8257 31.4924 3.33331 33.3333 3.33331H46.6667C48.5076 3.33331 50 4.8257 50 6.66665V25C50 25.884 49.6488 26.7319 49.0237 27.357L42.357 34.0237C41.0553 35.3254 38.9447 35.3254 37.643 34.0237L30.9763 27.357C30.3512 26.7319 30 25.884 30 25V6.66665ZM36.6667 9.99998V23.6193L40 26.9526L43.3333 23.6193V9.99998H36.6667Z" fill="white"/>
<path fill-rule="evenodd" clip-rule="evenodd" d="M37.643 45.9763C38.9447 44.6746 41.0553 44.6746 42.357 45.9763L49.0237 52.643C49.6488 53.2681 50 54.1159 50 55V73.3333C50 75.1743 48.5076 76.6667 46.6667 76.6667H33.3333C31.4924 76.6667 30 75.1743 30 73.3333V55C30 54.1159 30.3512 53.2681 30.9763 52.643L37.643 45.9763ZM36.6667 56.3807V70H43.3333V56.3807L40 53.0474L36.6667 56.3807Z" fill="white"/>
<path fill-rule="evenodd" clip-rule="evenodd" d="M52.643 30.9763C53.2681 30.3512 54.1159 30 55 30H73.3333C75.1743 30 76.6667 31.4924 76.6667 33.3333V46.6667C76.6667 48.5076 75.1743 50 73.3333 50H55C54.1159 50 53.2681 49.6488 52.643 49.0237L45.9763 42.357C44.6746 41.0553 44.6746 38.9447 45.9763 37.643L52.643 30.9763ZM56.3807 36.6667L53.0474 40L56.3807 43.3333H70V36.6667H56.3807Z" fill="white"/>
<path fill-rule="evenodd" clip-rule="evenodd" d="M3.33331 33.3333C3.33331 31.4924 4.8257 30 6.66665 30H25C25.884 30 26.7319 30.3512 27.357 30.9763L34.0237 37.643C35.3254 38.9447 35.3254 41.0553 34.0237 42.357L27.357 49.0237C26.7319 49.6488 25.884 50 25 50H6.66665C4.8257 50 3.33331 48.5076 3.33331 46.6667V33.3333ZM9.99998 36.6667V43.3333H23.6193L26.9526 40L23.6193 36.6667H9.99998Z" fill="white"/>
</g>
<defs>
<filter id="filter0_i_10_29" x="0" y="0" width="82" height="82" filterUnits="userSpaceOnUse" color-interpolation-filters="sRGB">
<feFlood flood-opacity="0" result="BackgroundImageFix"/>
<feBlend mode="normal" in="SourceGraphic" in2="BackgroundImageFix" result="shape"/>
<feColorMatrix in="SourceAlpha" type="matrix" values="0 0 0 0 0 0 0 0 0 0 0 0 0 0 0 0 0 0 127 0" result="hardAlpha"/>
<feOffset dx="2" dy="2"/>
<feGaussianBlur stdDeviation="1"/>
<feComposite in2="hardAlpha" operator="arithmetic" k2="-1" k3="1"/>
<feColorMatrix type="matrix" values="0 0 0 0 0 0 0 0 0 0 0 0 0 0 0 0 0 0 0.5 0"/>
<feBlend mode="normal" in2="shape" result="effect1_innerShadow_10_29"/>
</filter>
</defs>
</svg>
