<svg width="31" height="31" viewBox="0 0 31 31" fill="none" xmlns="http://www.w3.org/2000/svg">
<path d="M15.4863 0.607911C7.03369 0.604493 0.1875 7.44727 0.1875 15.8931C0.1875 22.5718 4.47021 28.249 10.4346 30.334C11.2378 30.5357 11.1147 29.9648 11.1147 29.5752V26.9263C6.47656 27.4697 6.28857 24.4004 5.97754 23.8877C5.34863 22.8145 3.86182 22.541 4.30615 22.0283C5.3623 21.4849 6.43896 22.165 7.68652 24.0073C8.58887 25.3438 10.3491 25.1182 11.2412 24.896C11.436 24.0928 11.853 23.375 12.4272 22.8179C7.62158 21.9565 5.61865 19.0239 5.61865 15.5376C5.61865 13.8457 6.17578 12.2905 7.26953 11.0361C6.57227 8.96826 7.33447 7.19776 7.43701 6.93457C9.42285 6.75684 11.4873 8.35645 11.6479 8.48291C12.7759 8.17871 14.0645 8.01807 15.5068 8.01807C16.9561 8.01807 18.248 8.18555 19.3862 8.49317C19.7725 8.19922 21.6865 6.8252 23.5322 6.99268C23.6313 7.25586 24.3765 8.98536 23.7202 11.0259C24.8276 12.2837 25.3916 13.8525 25.3916 15.5479C25.3916 19.041 23.375 21.9771 18.5557 22.8247C18.9685 23.2307 19.2962 23.7148 19.5198 24.2488C19.7434 24.7829 19.8583 25.3561 19.8579 25.9351V29.7803C19.8853 30.0879 19.8579 30.3921 20.3706 30.3921C26.4238 28.3516 30.7817 22.6333 30.7817 15.8965C30.7817 7.44727 23.9321 0.607911 15.4863 0.607911Z" fill="black"/>
</svg>
