<svg width="26" height="26" viewBox="0 0 26 26" fill="none" xmlns="http://www.w3.org/2000/svg">
<path d="M25.2569 10.5519H24.25V10.5H13V15.5H20.0644C19.0338 18.4106 16.2644 20.5 13 20.5C8.85812 20.5 5.5 17.1419 5.5 13C5.5 8.85812 8.85812 5.5 13 5.5C14.9119 5.5 16.6513 6.22125 17.9756 7.39937L21.5112 3.86375C19.2787 1.78312 16.2925 0.5 13 0.5C6.09688 0.5 0.5 6.09688 0.5 13C0.5 19.9031 6.09688 25.5 13 25.5C19.9031 25.5 25.5 19.9031 25.5 13C25.5 12.1619 25.4137 11.3438 25.2569 10.5519Z" fill="#FFC107"/>
</svg>
