<svg width="439" height="103" viewBox="0 0 439 103" fill="none" xmlns="http://www.w3.org/2000/svg">
<path d="M129.789 62.9023C127.445 64.8945 124.832 66.4297 121.949 67.5078C119.066 68.5625 116.066 69.0898 112.949 69.0898C110.559 69.0898 108.25 68.7734 106.023 68.1406C103.82 67.5312 101.758 66.6641 99.8359 65.5391C97.9141 64.3906 96.1562 63.0312 94.5625 61.4609C92.9688 59.8672 91.6094 58.1094 90.4844 56.1875C89.3594 54.2422 88.4805 52.1562 87.8477 49.9297C87.2383 47.7031 86.9336 45.3945 86.9336 43.0039C86.9336 40.6133 87.2383 38.3164 87.8477 36.1133C88.4805 33.9102 89.3594 31.8477 90.4844 29.9258C91.6094 27.9805 92.9688 26.2227 94.5625 24.6523C96.1562 23.0586 97.9141 21.6992 99.8359 20.5742C101.758 19.4492 103.82 18.582 106.023 17.9727C108.25 17.3398 110.559 17.0234 112.949 17.0234C116.066 17.0234 119.066 17.5625 121.949 18.6406C124.832 19.6953 127.445 21.2187 129.789 23.2109L124.516 32C122.992 30.4531 121.234 29.2461 119.242 28.3789C117.25 27.4883 115.152 27.043 112.949 27.043C110.746 27.043 108.672 27.4648 106.727 28.3086C104.805 29.1523 103.117 30.3008 101.664 31.7539C100.211 33.1836 99.0625 34.8711 98.2188 36.8164C97.375 38.7383 96.9531 40.8008 96.9531 43.0039C96.9531 45.2305 97.375 47.3164 98.2188 49.2617C99.0625 51.207 100.211 52.9062 101.664 54.3594C103.117 55.8125 104.805 56.9609 106.727 57.8047C108.672 58.6484 110.746 59.0703 112.949 59.0703C114.215 59.0703 115.445 58.918 116.641 58.6133C117.836 58.3086 118.973 57.8867 120.051 57.3477V43.0039H129.789V62.9023ZM172.996 68H170.676L166.949 62.832C166.035 63.6523 165.062 64.4258 164.031 65.1523C163.023 65.8555 161.957 66.4766 160.832 67.0156C159.707 67.5312 158.547 67.9414 157.352 68.2461C156.18 68.5508 154.984 68.7031 153.766 68.7031C151.117 68.7031 148.621 68.2578 146.277 67.3672C143.957 66.4766 141.918 65.1875 140.16 63.5C138.426 61.7891 137.055 59.7031 136.047 57.2422C135.039 54.7812 134.535 51.9805 134.535 48.8398C134.535 45.9102 135.039 43.2266 136.047 40.7891C137.055 38.3281 138.426 36.2188 140.16 34.4609C141.918 32.7031 143.957 31.3437 146.277 30.3828C148.621 29.3984 151.117 28.9062 153.766 28.9062C154.984 28.9062 156.191 29.0586 157.387 29.3633C158.582 29.668 159.742 30.0898 160.867 30.6289C161.992 31.168 163.059 31.8008 164.066 32.5273C165.098 33.2539 166.059 34.0391 166.949 34.8828L170.676 30.418H172.996V68ZM163.328 48.8398C163.328 47.5273 163.07 46.2617 162.555 45.043C162.062 43.8008 161.383 42.7109 160.516 41.7734C159.648 40.8125 158.629 40.0508 157.457 39.4883C156.309 38.9023 155.078 38.6094 153.766 38.6094C152.453 38.6094 151.211 38.832 150.039 39.2773C148.891 39.7227 147.883 40.3789 147.016 41.2461C146.172 42.1133 145.504 43.1914 145.012 44.4805C144.52 45.7461 144.273 47.1992 144.273 48.8398C144.273 50.4805 144.52 51.9453 145.012 53.2344C145.504 54.5 146.172 55.5664 147.016 56.4336C147.883 57.3008 148.891 57.957 150.039 58.4023C151.211 58.8477 152.453 59.0703 153.766 59.0703C155.078 59.0703 156.309 58.7891 157.457 58.2266C158.629 57.6406 159.648 56.8789 160.516 55.9414C161.383 54.9805 162.062 53.8906 162.555 52.6719C163.07 51.4297 163.328 50.1523 163.328 48.8398ZM228.227 68H218.664V44.0938C218.664 43.4375 218.535 42.8164 218.277 42.2305C218.043 41.6445 217.703 41.1289 217.258 40.6836C216.812 40.2383 216.297 39.8984 215.711 39.6641C215.125 39.4062 214.504 39.2773 213.848 39.2773C213.191 39.2773 212.57 39.4062 211.984 39.6641C211.422 39.8984 210.918 40.2383 210.473 40.6836C210.051 41.1289 209.711 41.6445 209.453 42.2305C209.219 42.8164 209.102 43.4375 209.102 44.0938V68H199.504V44.0938C199.504 43.4375 199.375 42.8164 199.117 42.2305C198.883 41.6445 198.543 41.1289 198.098 40.6836C197.652 40.2383 197.137 39.8984 196.551 39.6641C195.965 39.4062 195.344 39.2773 194.688 39.2773C194.031 39.2773 193.41 39.4062 192.824 39.6641C192.262 39.8984 191.758 40.2383 191.312 40.6836C190.891 41.1289 190.551 41.6445 190.293 42.2305C190.059 42.8164 189.941 43.4375 189.941 44.0938V68H180.344V30.3477H182.664L185.266 33.2305C186.602 32.1055 188.066 31.2383 189.66 30.6289C191.277 29.9961 192.953 29.6797 194.688 29.6797C196.445 29.6797 198.156 30.0078 199.82 30.6641C201.508 31.3203 202.984 32.457 204.25 34.0742C204.836 33.2773 205.504 32.5977 206.254 32.0352C207.004 31.4727 207.789 31.0156 208.609 30.6641C209.453 30.3125 210.32 30.0664 211.211 29.9258C212.102 29.7617 212.98 29.6797 213.848 29.6797C215.84 29.6797 217.703 30.0547 219.438 30.8047C221.195 31.5547 222.719 32.5859 224.008 33.8984C225.32 35.1875 226.352 36.7109 227.102 38.4688C227.852 40.2266 228.227 42.1016 228.227 44.0938V68ZM250.234 58.7891C250.609 58.9062 250.984 58.9883 251.359 59.0352C251.734 59.0586 252.109 59.0703 252.484 59.0703C253.422 59.0703 254.324 58.9414 255.191 58.6836C256.059 58.4258 256.867 58.0625 257.617 57.5938C258.391 57.1016 259.07 56.5156 259.656 55.8359C260.266 55.1328 260.758 54.3594 261.133 53.5156L268.164 60.582C267.273 61.8477 266.242 62.9844 265.07 63.9922C263.922 65 262.668 65.8555 261.309 66.5586C259.973 67.2617 258.555 67.7891 257.055 68.1406C255.578 68.5156 254.055 68.7031 252.484 68.7031C249.836 68.7031 247.34 68.2109 244.996 67.2266C242.676 66.2422 240.637 64.8711 238.879 63.1133C237.145 61.3555 235.773 59.2695 234.766 56.8555C233.758 54.418 233.254 51.7461 233.254 48.8398C233.254 45.8633 233.758 43.1445 234.766 40.6836C235.773 38.2227 237.145 36.125 238.879 34.3906C240.637 32.6562 242.676 31.3086 244.996 30.3477C247.34 29.3867 249.836 28.9062 252.484 28.9062C254.055 28.9062 255.59 29.0937 257.09 29.4688C258.59 29.8438 260.008 30.3828 261.344 31.0859C262.703 31.7891 263.969 32.6562 265.141 33.6875C266.312 34.6953 267.344 35.832 268.234 37.0977L250.234 58.7891ZM255.156 38.9961C254.711 38.832 254.266 38.7266 253.82 38.6797C253.398 38.6328 252.953 38.6094 252.484 38.6094C251.172 38.6094 249.93 38.8555 248.758 39.3477C247.609 39.8164 246.602 40.4961 245.734 41.3867C244.891 42.2773 244.223 43.3555 243.73 44.6211C243.238 45.8633 242.992 47.2695 242.992 48.8398C242.992 49.1914 243.004 49.5898 243.027 50.0352C243.074 50.4805 243.133 50.9375 243.203 51.4062C243.297 51.8516 243.402 52.2852 243.52 52.707C243.637 53.1289 243.789 53.5039 243.977 53.832L255.156 38.9961ZM282.684 68H273.086V30.3477H275.406L278.57 34.8125C280.117 33.4062 281.875 32.3281 283.844 31.5781C285.812 30.8047 287.852 30.418 289.961 30.418H298.434V39.9805H289.961C288.953 39.9805 288.004 40.168 287.113 40.543C286.223 40.918 285.449 41.4336 284.793 42.0898C284.137 42.7461 283.621 43.5195 283.246 44.4102C282.871 45.3008 282.684 46.25 282.684 47.2578V68ZM323.148 68H301.211V58.4375H323.148C323.805 58.4375 324.367 58.2031 324.836 57.7344C325.305 57.2656 325.539 56.7031 325.539 56.0469C325.539 55.3672 325.305 54.9219 324.836 54.7109C324.367 54.5 323.805 54.3945 323.148 54.3945H313.164C311.5 54.3945 309.941 54.0781 308.488 53.4453C307.035 52.8125 305.77 51.957 304.691 50.8789C303.613 49.7773 302.758 48.5 302.125 47.0469C301.516 45.5938 301.211 44.0352 301.211 42.3711C301.211 40.707 301.516 39.1484 302.125 37.6953C302.758 36.2422 303.613 34.9766 304.691 33.8984C305.77 32.8203 307.035 31.9766 308.488 31.3672C309.941 30.7344 311.5 30.418 313.164 30.418H332.605V39.9805H313.164C312.508 39.9805 311.945 40.2148 311.477 40.6836C311.008 41.1523 310.773 41.7148 310.773 42.3711C310.773 43.0508 311.008 43.6367 311.477 44.1289C311.945 44.5977 312.508 44.832 313.164 44.832H323.148C324.789 44.832 326.336 45.1133 327.789 45.6758C329.242 46.2148 330.508 46.9766 331.586 47.9609C332.664 48.9453 333.52 50.1289 334.152 51.5117C334.785 52.8945 335.102 54.4062 335.102 56.0469C335.102 57.7109 334.785 59.2695 334.152 60.7227C333.52 62.1523 332.664 63.418 331.586 64.5195C330.508 65.5977 329.242 66.4531 327.789 67.0859C326.336 67.6953 324.789 68 323.148 68Z" fill="#1565D8"/>
<path fill-rule="evenodd" clip-rule="evenodd" d="M65.72 35.2194C61.3051 44.4024 51.9151 50.7412 41.0447 50.7412C25.9324 50.7412 13.6815 38.4902 13.6815 23.3779C13.6815 13.4769 18.9401 4.80404 26.8167 0C11.5515 2.86226 0 16.2604 0 32.3565C0 50.5384 14.7394 65.2778 32.9214 65.2778C50.1388 65.2778 64.2691 52.0608 65.72 35.2194Z" fill="#1565D8"/>
<path fill-rule="evenodd" clip-rule="evenodd" d="M79.0933 75.915C71.1335 82.275 59.9242 83.9152 50.1291 79.2021C36.5112 72.6496 30.7836 56.2983 37.3361 42.6804C41.6291 33.7585 50.1281 28.2234 59.3087 27.3096C44.3119 23.2698 28.0933 30.3344 21.1142 44.8389C13.2307 61.2229 20.1217 80.8955 36.5057 88.779C52.0201 96.2441 70.4835 90.4613 79.0933 75.915Z" fill="#1565D8"/>
</svg>
