<svg width="106" height="57" viewBox="0 0 106 57" fill="none" xmlns="http://www.w3.org/2000/svg">
<path d="M53.5156 19.9688H57.4609V25.5703C56.8568 25.763 56.2422 25.9089 55.6172 26.0078C54.9922 26.1068 54.2682 26.1562 53.4453 26.1562C51.7057 26.1562 50.3594 25.6406 49.4062 24.6094C48.4531 23.5781 47.9766 22.138 47.9766 20.2891C47.9766 19.0964 48.2135 18.0547 48.6875 17.1641C49.1615 16.2734 49.8438 15.5938 50.7344 15.125C51.6302 14.651 52.6849 14.4141 53.8984 14.4141C55.1172 14.4141 56.2526 14.638 57.3047 15.0859L56.7578 16.3359C55.7526 15.8984 54.7708 15.6797 53.8125 15.6797C52.4531 15.6797 51.3906 16.0911 50.625 16.9141C49.8594 17.737 49.4766 18.862 49.4766 20.2891C49.4766 21.7995 49.8438 22.9479 50.5781 23.7344C51.3125 24.5208 52.3802 24.9141 53.7812 24.9141C54.5469 24.9141 55.2943 24.8229 56.0234 24.6406V21.25H53.5156V19.9688ZM65.3125 26L65.0391 24.7812H64.9766C64.5495 25.3177 64.1224 25.6823 63.6953 25.875C63.2734 26.0625 62.7396 26.1562 62.0938 26.1562C61.25 26.1562 60.5885 25.9349 60.1094 25.4922C59.6302 25.0495 59.3906 24.4245 59.3906 23.6172C59.3906 21.8776 60.763 20.9661 63.5078 20.8828L64.9609 20.8281V20.3203C64.9609 19.6693 64.8203 19.1901 64.5391 18.8828C64.2578 18.5703 63.8073 18.4141 63.1875 18.4141C62.7344 18.4141 62.3047 18.4818 61.8984 18.6172C61.4974 18.7526 61.1198 18.9036 60.7656 19.0703L60.3359 18.0156C60.7682 17.7865 61.2396 17.6068 61.75 17.4766C62.2604 17.3464 62.7656 17.2812 63.2656 17.2812C64.3021 17.2812 65.0729 17.5104 65.5781 17.9688C66.0833 18.4271 66.3359 19.1562 66.3359 20.1562V26H65.3125ZM62.4141 25.0234C63.2005 25.0234 63.8177 24.8125 64.2656 24.3906C64.7188 23.9635 64.9453 23.3594 64.9453 22.5781V21.8047L63.6797 21.8594C62.6953 21.8958 61.9766 22.0521 61.5234 22.3281C61.0755 22.6042 60.8516 23.0391 60.8516 23.6328C60.8516 24.0807 60.987 24.4245 61.2578 24.6641C61.5339 24.9036 61.9193 25.0234 62.4141 25.0234ZM79.9141 26V20.4766C79.9141 19.1224 79.3333 18.4453 78.1719 18.4453C77.375 18.4453 76.7891 18.6771 76.4141 19.1406C76.0391 19.6042 75.8516 20.3125 75.8516 21.2656V26H74.4531V20.4766C74.4531 19.7995 74.3099 19.2917 74.0234 18.9531C73.7422 18.6146 73.2995 18.4453 72.6953 18.4453C71.9036 18.4453 71.3229 18.6875 70.9531 19.1719C70.5885 19.6562 70.4062 20.4505 70.4062 21.5547V26H69V17.4219H70.1328L70.3438 18.5938H70.4219C70.6667 18.1771 71.0104 17.8516 71.4531 17.6172C71.901 17.3828 72.401 17.2656 72.9531 17.2656C74.2969 17.2656 75.1719 17.7448 75.5781 18.7031H75.6562C75.9323 18.2448 76.3073 17.8906 76.7812 17.6406C77.2604 17.3906 77.8021 17.2656 78.4062 17.2656C79.375 17.2656 80.099 17.5156 80.5781 18.0156C81.0625 18.5156 81.3047 19.3151 81.3047 20.4141V26H79.9141ZM87.6172 26.1562C86.3307 26.1562 85.3203 25.7682 84.5859 24.9922C83.8568 24.2109 83.4922 23.138 83.4922 21.7734C83.4922 20.3984 83.8333 19.3047 84.5156 18.4922C85.1979 17.6745 86.1198 17.2656 87.2812 17.2656C88.3594 17.2656 89.2188 17.6146 89.8594 18.3125C90.5 19.0052 90.8203 19.9453 90.8203 21.1328V21.9844H84.9453C84.9714 22.9583 85.2188 23.6979 85.6875 24.2031C86.1562 24.7083 86.8203 24.9609 87.6797 24.9609C88.138 24.9609 88.5729 24.9219 88.9844 24.8438C89.3958 24.7604 89.8776 24.6016 90.4297 24.3672V25.6016C89.9557 25.8047 89.5104 25.9479 89.0938 26.0312C88.6771 26.1146 88.1849 26.1562 87.6172 26.1562ZM87.2656 18.4141C86.5938 18.4141 86.0625 18.6302 85.6719 19.0625C85.2812 19.4948 85.0495 20.0964 84.9766 20.8672H89.3438C89.3333 20.0651 89.1484 19.4557 88.7891 19.0391C88.4297 18.6224 87.9219 18.4141 87.2656 18.4141ZM97 17.2656C97.3802 17.2656 97.7161 17.2969 98.0078 17.3594L97.8359 18.6562C97.5182 18.5833 97.2083 18.5469 96.9062 18.5469C96.4531 18.5469 96.0312 18.6719 95.6406 18.9219C95.2552 19.1719 94.9531 19.5182 94.7344 19.9609C94.5156 20.3984 94.4062 20.8854 94.4062 21.4219V26H93V17.4219H94.1562L94.3125 18.9922H94.375C94.7031 18.4245 95.0911 17.9948 95.5391 17.7031C95.987 17.4115 96.474 17.2656 97 17.2656ZM105.195 23.6328C105.195 24.4349 104.896 25.0573 104.297 25.5C103.698 25.9375 102.857 26.1562 101.773 26.1562C100.643 26.1562 99.7448 25.9766 99.0781 25.6172V24.3359C100.021 24.7943 100.93 25.0234 101.805 25.0234C102.513 25.0234 103.029 24.9089 103.352 24.6797C103.674 24.4505 103.836 24.1432 103.836 23.7578C103.836 23.4193 103.68 23.1328 103.367 22.8984C103.06 22.6641 102.51 22.3958 101.719 22.0938C100.911 21.7812 100.344 21.5156 100.016 21.2969C99.6875 21.0729 99.4453 20.8229 99.2891 20.5469C99.138 20.2708 99.0625 19.9349 99.0625 19.5391C99.0625 18.8359 99.349 18.2812 99.9219 17.875C100.495 17.4688 101.281 17.2656 102.281 17.2656C103.255 17.2656 104.167 17.4583 105.016 17.8438L104.539 18.9609C103.669 18.5964 102.885 18.4141 102.188 18.4141C101.604 18.4141 101.161 18.5078 100.859 18.6953C100.557 18.8776 100.406 19.1302 100.406 19.4531C100.406 19.7656 100.536 20.026 100.797 20.2344C101.057 20.4375 101.664 20.7214 102.617 21.0859C103.331 21.3516 103.857 21.599 104.195 21.8281C104.539 22.0573 104.792 22.3151 104.953 22.6016C105.115 22.888 105.195 23.2318 105.195 23.6328Z" fill="white"/>
<path fill-rule="evenodd" clip-rule="evenodd" d="M36.3693 19.4904C33.9261 24.5722 28.7297 28.08 22.7141 28.08C14.351 28.08 7.57132 21.3004 7.57132 12.9373C7.57132 7.45808 10.4814 2.65855 14.8404 0C6.3926 1.58396 0 8.99844 0 17.906C0 27.9679 8.15675 36.1246 18.2186 36.1246C27.7467 36.1246 35.5664 28.8104 36.3693 19.4904Z" fill="white"/>
<path fill-rule="evenodd" clip-rule="evenodd" d="M43.7708 42.0109C39.3658 45.5307 33.1625 46.4385 27.7418 43.8302C20.2057 40.2041 17.036 31.1553 20.6622 23.6192C23.0379 18.6818 27.7413 15.6187 32.8219 15.113C24.5227 12.8775 15.5474 16.787 11.6851 24.8137C7.32243 33.8806 11.1359 44.7674 20.2028 49.1301C28.7885 53.2613 39.0062 50.061 43.7708 42.0109Z" fill="white"/>
</svg>
