<svg width="58" height="141" viewBox="0 0 58 141" fill="none" xmlns="http://www.w3.org/2000/svg">
<rect width="58" height="141" rx="29" fill="#C1C1C1"/>
<path fill-rule="evenodd" clip-rule="evenodd" d="M26.4239 22.2204C19.3671 23.4418 14 29.5941 14 37C14 45.2843 20.7157 52 29 52C36.4059 52 42.5582 46.6329 43.7796 39.5761C41.5561 41.8211 38.4715 43.2121 35.0606 43.2121C28.2825 43.2121 22.7879 37.7175 22.7879 30.9394C22.7879 27.5285 24.1789 24.4439 26.4239 22.2204ZM10.6667 37C10.6667 26.8748 18.8748 18.6667 29 18.6667C30.2706 18.6667 31.5127 18.7962 32.7133 19.0433C33.4721 19.1994 34.0232 19.8579 34.0434 20.6323C34.0635 21.4068 33.5474 22.093 32.7977 22.2885C28.9554 23.2902 26.1213 26.7859 26.1213 30.9394C26.1213 35.8765 30.1235 39.8787 35.0606 39.8787C39.2141 39.8787 42.7098 37.0446 43.7115 33.2023C43.9069 32.4526 44.5932 31.9365 45.3676 31.9566C46.142 31.9768 46.8005 32.5279 46.9567 33.2867C47.2038 34.4872 47.3334 35.7294 47.3334 37C47.3334 47.1252 39.1252 55.3333 29 55.3333C18.8748 55.3333 10.6667 47.1252 10.6667 37Z" fill="#5B5A5A"/>
<path fill-rule="evenodd" clip-rule="evenodd" d="M16.5 104C16.5 97.0964 22.0964 91.5 29 91.5C35.9036 91.5 41.5 97.0964 41.5 104C41.5 110.904 35.9036 116.5 29 116.5C22.0964 116.5 16.5 110.904 16.5 104ZM29 94.8333C23.9374 94.8333 19.8333 98.9374 19.8333 104C19.8333 109.063 23.9374 113.167 29 113.167C34.0626 113.167 38.1667 109.063 38.1667 104C38.1667 98.9374 34.0626 94.8333 29 94.8333Z" fill="white"/>
<path d="M29 89C30.1506 89 31.0834 88.0673 31.0834 86.9167C31.0834 85.7661 30.1506 84.8333 29 84.8333C27.8494 84.8333 26.9167 85.7661 26.9167 86.9167C26.9167 88.0673 27.8494 89 29 89Z" fill="white"/>
<path d="M41.0833 94C42.2339 94 43.1667 93.0673 43.1667 91.9167C43.1667 90.7661 42.2339 89.8333 41.0833 89.8333C39.9327 89.8333 39 90.7661 39 91.9167C39 93.0673 39.9327 94 41.0833 94Z" fill="white"/>
<path d="M46.0833 106.083C47.2339 106.083 48.1667 105.151 48.1667 104C48.1667 102.849 47.2339 101.917 46.0833 101.917C44.9327 101.917 44 102.849 44 104C44 105.151 44.9327 106.083 46.0833 106.083Z" fill="white"/>
<path d="M41.0833 118.167C42.2339 118.167 43.1667 117.234 43.1667 116.083C43.1667 114.933 42.2339 114 41.0833 114C39.9327 114 39 114.933 39 116.083C39 117.234 39.9327 118.167 41.0833 118.167Z" fill="white"/>
<path d="M29 123.167C30.1506 123.167 31.0834 122.234 31.0834 121.083C31.0834 119.933 30.1506 119 29 119C27.8494 119 26.9167 119.933 26.9167 121.083C26.9167 122.234 27.8494 123.167 29 123.167Z" fill="white"/>
<path d="M16.9166 118.167C18.0672 118.167 19 117.234 19 116.083C19 114.933 18.0672 114 16.9166 114C15.7661 114 14.8333 114.933 14.8333 116.083C14.8333 117.234 15.7661 118.167 16.9166 118.167Z" fill="white"/>
<path d="M11.9166 106.083C13.0672 106.083 14 105.151 14 104C14 102.849 13.0672 101.917 11.9166 101.917C10.7661 101.917 9.83331 102.849 9.83331 104C9.83331 105.151 10.7661 106.083 11.9166 106.083Z" fill="white"/>
<path d="M16.9166 94C18.0672 94 19 93.0673 19 91.9167C19 90.7661 18.0672 89.8333 16.9166 89.8333C15.7661 89.8333 14.8333 90.7661 14.8333 91.9167C14.8333 93.0673 15.7661 94 16.9166 94Z" fill="white"/>
</svg>
