<svg width="31" height="31" viewBox="0 0 31 31" fill="none" xmlns="http://www.w3.org/2000/svg">
<path d="M7.04312 30.625H0.693906V10.1784H7.04312V30.625ZM3.86469 7.38938C1.83469 7.38938 0.1875 5.70719 0.1875 3.67719C0.1875 2.70194 0.574917 1.76663 1.26452 1.07702C1.95413 0.387417 2.88944 0 3.86469 0C4.83994 0 5.77524 0.387417 6.46485 1.07702C7.15446 1.76663 7.54187 2.70194 7.54187 3.67719C7.54187 5.70719 5.89469 7.38938 3.86469 7.38938ZM30.8059 30.625H24.4709V20.6719C24.4709 18.2995 24.4228 15.2578 21.17 15.2578C17.8691 15.2578 17.3627 17.8347 17.3627 20.5012V30.625H11.02V10.1784H17.1089V12.9675H17.1975C18.0452 11.3608 20.1156 9.66547 23.2044 9.66547C29.6302 9.66547 30.8114 13.8972 30.8114 19.3933V30.625H30.8059Z" fill="#0E76A8"/>
</svg>
