<svg width="30" height="24" viewBox="0 0 30 24" fill="none" xmlns="http://www.w3.org/2000/svg">
<path d="M29.8748 11.4C26.8459 4.365 21.1479 0 15 0C8.85214 0 3.15413 4.365 0.125184 11.4C0.0426173 11.5892 0 11.7935 0 12C0 12.2065 0.0426173 12.4108 0.125184 12.6C3.15413 19.635 8.85214 24 15 24C21.1479 24 26.8459 19.635 29.8748 12.6C29.9574 12.4108 30 12.2065 30 12C30 11.7935 29.9574 11.5892 29.8748 11.4ZM15 21C10.2467 21 5.74822 17.565 3.15413 12C5.74822 6.435 10.2467 3 15 3C19.7533 3 24.2518 6.435 26.8459 12C24.2518 17.565 19.7533 21 15 21ZM15 6C13.8137 6 12.6541 6.35189 11.6677 7.01118C10.6814 7.67047 9.91262 8.60754 9.45865 9.7039C9.00469 10.8003 8.88591 12.0067 9.11734 13.1705C9.34877 14.3344 9.92001 15.4035 10.7588 16.2426C11.5977 17.0818 12.6664 17.6532 13.8299 17.8847C14.9933 18.1162 16.1993 17.9974 17.2953 17.5433C18.3913 17.0892 19.328 16.3201 19.9871 15.3334C20.6461 14.3467 20.9979 13.1867 20.9979 12C20.9979 10.4087 20.366 8.88258 19.2412 7.75736C18.1163 6.63214 16.5907 6 15 6ZM15 15C14.4069 15 13.827 14.8241 13.3339 14.4944C12.8407 14.1648 12.4563 13.6962 12.2293 13.1481C12.0023 12.5999 11.943 11.9967 12.0587 11.4147C12.1744 10.8328 12.46 10.2982 12.8794 9.87868C13.2988 9.45912 13.8332 9.1734 14.4149 9.05764C14.9967 8.94189 15.5997 9.0013 16.1476 9.22836C16.6956 9.45542 17.164 9.83994 17.4935 10.3333C17.8231 10.8266 17.999 11.4067 17.999 12C17.999 12.7956 17.683 13.5587 17.1206 14.1213C16.5582 14.6839 15.7954 15 15 15Z" fill="#8692A6"/>
</svg>
