<svg width="40" height="40" viewBox="0 0 40 40" fill="none" xmlns="http://www.w3.org/2000/svg">
<path fill-rule="evenodd" clip-rule="evenodd" d="M7.5 20C7.5 13.0964 13.0964 7.5 20 7.5C26.9036 7.5 32.5 13.0964 32.5 20C32.5 26.9036 26.9036 32.5 20 32.5C13.0964 32.5 7.5 26.9036 7.5 20ZM20 10.8333C14.9374 10.8333 10.8333 14.9374 10.8333 20C10.8333 25.0626 14.9374 29.1667 20 29.1667C25.0626 29.1667 29.1667 25.0626 29.1667 20C29.1667 14.9374 25.0626 10.8333 20 10.8333Z" fill="white"/>
<path d="M20 5.00004C21.1505 5.00004 22.0833 4.0673 22.0833 2.91671C22.0833 1.76612 21.1505 0.833374 20 0.833374C18.8494 0.833374 17.9166 1.76612 17.9166 2.91671C17.9166 4.0673 18.8494 5.00004 20 5.00004Z" fill="white"/>
<path d="M32.0833 10C33.2339 10 34.1667 9.06729 34.1667 7.91671C34.1667 6.76612 33.2339 5.83337 32.0833 5.83337C30.9327 5.83337 30 6.76612 30 7.91671C30 9.06729 30.9327 10 32.0833 10Z" fill="white"/>
<path d="M37.0833 22.0833C38.2339 22.0833 39.1667 21.1505 39.1667 20C39.1667 18.8494 38.2339 17.9166 37.0833 17.9166C35.9327 17.9166 35 18.8494 35 20C35 21.1505 35.9327 22.0833 37.0833 22.0833Z" fill="white"/>
<path d="M32.0833 34.1667C33.2339 34.1667 34.1667 33.2339 34.1667 32.0833C34.1667 30.9327 33.2339 30 32.0833 30C30.9327 30 30 30.9327 30 32.0833C30 33.2339 30.9327 34.1667 32.0833 34.1667Z" fill="white"/>
<path d="M20 39.1667C21.1505 39.1667 22.0833 38.2339 22.0833 37.0833C22.0833 35.9327 21.1505 35 20 35C18.8494 35 17.9166 35.9327 17.9166 37.0833C17.9166 38.2339 18.8494 39.1667 20 39.1667Z" fill="white"/>
<path d="M7.91671 34.1667C9.06729 34.1667 10 33.2339 10 32.0833C10 30.9327 9.06729 30 7.91671 30C6.76612 30 5.83337 30.9327 5.83337 32.0833C5.83337 33.2339 6.76612 34.1667 7.91671 34.1667Z" fill="white"/>
<path d="M2.91671 22.0833C4.0673 22.0833 5.00004 21.1505 5.00004 20C5.00004 18.8494 4.0673 17.9166 2.91671 17.9166C1.76612 17.9166 0.833374 18.8494 0.833374 20C0.833374 21.1505 1.76612 22.0833 2.91671 22.0833Z" fill="white"/>
<path d="M7.91671 10C9.06729 10 10 9.06729 10 7.91671C10 6.76612 9.06729 5.83337 7.91671 5.83337C6.76612 5.83337 5.83337 6.76612 5.83337 7.91671C5.83337 9.06729 6.76612 10 7.91671 10Z" fill="white"/>
</svg>
