<svg width="35" height="29" viewBox="0 0 35 29" fill="none" xmlns="http://www.w3.org/2000/svg">
<path d="M35 3.48158C33.7121 4.053 32.3282 4.43919 30.8757 4.61293C32.3585 3.72372 33.4969 2.31562 34.033 0.637882C32.6235 1.47481 31.0814 2.06449 29.4733 2.38142C28.1634 0.985085 26.2973 0.112427 24.2319 0.112427C20.2662 0.112427 17.051 3.32946 17.051 7.29725C17.051 7.86046 17.1146 8.40876 17.237 8.93477C11.2692 8.63503 5.97816 5.77465 2.43646 1.42764C1.8185 2.48881 1.46439 3.72317 1.46439 5.03975C1.46439 7.53255 2.73219 9.73164 4.65883 11.0202C3.51852 10.9844 2.40331 10.6763 1.40629 10.1214C1.40588 10.1515 1.40588 10.1816 1.40588 10.2118C1.40588 13.693 3.88104 16.597 7.16584 17.2571C6.10844 17.5448 4.9993 17.587 3.92314 17.3802C4.83684 20.2347 7.48877 22.3119 10.6308 22.3701C8.17332 24.297 5.07705 25.4458 1.71295 25.4458C1.13326 25.4458 0.561777 25.4117 0 25.3454C3.17775 27.384 6.95215 28.5735 11.0072 28.5735C24.2152 28.5735 31.4377 17.6251 31.4377 8.13051C31.4377 7.81888 31.4308 7.50902 31.4169 7.20094C32.8227 6.18407 34.036 4.92458 35 3.48158Z" fill="#55ACEE"/>
</svg>
