<svg width="51" height="45" viewBox="0 0 51 45" fill="none" xmlns="http://www.w3.org/2000/svg">
<path fill-rule="evenodd" clip-rule="evenodd" d="M0.291687 15.7708C0.291687 7.54413 6.96078 0.875 15.1875 0.875C19.1911 0.875 22.8254 2.45583 25.5 5.02219C28.1747 2.45583 31.8089 0.875 35.8125 0.875C44.0392 0.875 50.7084 7.54413 50.7084 15.7708C50.7084 22.9532 46.5009 29.5194 41.5946 34.4743C36.6659 39.4517 30.6382 43.2062 26.2227 44.6735C25.7535 44.8294 25.2465 44.8294 24.7773 44.6735C20.3618 43.2062 14.3341 39.4517 9.40547 34.4743C4.4991 29.5194 0.291687 22.9532 0.291687 15.7708ZM15.1875 5.45833C9.49209 5.45833 4.87502 10.0754 4.87502 15.7708C4.87502 21.1927 8.11553 26.6577 12.6623 31.2494C16.8937 35.5226 21.9178 38.6923 25.5 40.065C29.0823 38.6923 34.1063 35.5226 38.3378 31.2494C42.8845 26.6577 46.125 21.1927 46.125 15.7708C46.125 10.0754 41.5079 5.45833 35.8125 5.45833C32.3266 5.45833 29.2439 7.18577 27.3737 9.84152C26.9445 10.4511 26.2455 10.8137 25.5 10.8137C24.7545 10.8137 24.0556 10.4511 23.6263 9.84152C21.7561 7.18577 18.6734 5.45833 15.1875 5.45833Z" fill="white"/>
</svg>
